<?xml version="1.0" encoding="UTF-8" standalone="no"?>
<!-- Created with Inkscape (http://www.inkscape.org/) -->

<svg
   width="2000"
   height="2000"
   viewBox="0 0 2000 2000"
   version="1.1"
   id="svg1"
   xmlns="http://www.w3.org/2000/svg"
   xmlns:svg="http://www.w3.org/2000/svg">
  <defs
     id="defs1" />
  <g
     id="layer1">
    <path
       style="fill:#ffffff;stroke:#000000;stroke-width:30;stroke-dasharray:none"
       d="m 1320,1180 v 540 h 470 a 10,10 135 0 0 10,-10 V 210 a 10,10 45 0 0 -10,-10 h -230 c -5.5228,0 -14.4852,-0.039 -19.9897,0.39353 -206.0779,16.19361 -378.835,526.86183 -530.046,548.87368 -5.4604,0.79488 -14.46819,0.79488 -19.92867,0 C 838.82357,727.25534 666.03317,216.58976 459.9896,200.39366 454.48519,199.96098 445.52285,200 440,200 H 210 a 10,10 135 0 0 -10,10 l 0,1500 a 10,10 45 0 0 10,10 l 460,0 a 10,10 135 0 0 10,-10 v -530 c 0,-5.5228 2.03902,-6.0136 4.65711,-1.1509 26.39336,49.022 161.47337,285.0765 315.34299,285.0765 153.87,0 288.9502,-236.0558 315.343,-285.0769 2.618,-4.8625 4.6569,-4.3715 4.6569,1.1513 z"
       id="path1"
       transform="matrix(0.908393,0,0,0.908393,91.606954,127.94585)" />
  </g>
  <g
     id="layer2">
    <path
       style="display:inline;fill:none;stroke:#000000;stroke-width:27.2518;stroke-dasharray:none"
       d="m 273.28556,1690.382 c 0,0 90.67571,-113.9168 218.03966,-113.9168 127.36395,0 217.98901,113.9168 217.98901,113.9168"
       id="path2" />
    <path
       style="display:inline;fill:none;stroke:#000000;stroke-width:27.2518;stroke-dasharray:none"
       d="m 273.28556,1606.8097 c 0,0 90.67571,-113.9165 218.03966,-113.9165 127.36395,0 217.98901,113.9165 217.98901,113.9165"
       id="path12" />
    <path
       style="display:inline;fill:none;stroke:#000000;stroke-width:27.2518;stroke-dasharray:none"
       d="m 273.28556,1523.2375 c 0,0 90.67571,-113.9167 218.03966,-113.9167 127.36395,0 217.98901,113.9167 217.98901,113.9167"
       id="path13" />
    <path
       style="display:inline;fill:none;stroke:#000000;stroke-width:27.2518;stroke-dasharray:none"
       d="m 273.28556,1439.6654 c 0,0 90.67571,-113.9167 218.03966,-113.9167 127.36395,0 217.98901,113.9167 217.98901,113.9167"
       id="path14" />
    <path
       style="display:inline;fill:none;stroke:#000000;stroke-width:27.2518;stroke-dasharray:none"
       d="m 273.28556,1356.0932 c 0,0 90.67571,-113.9166 218.03966,-113.9166 127.36395,0 217.98901,113.9166 217.98901,113.9166"
       id="path15" />
    <path
       style="display:inline;fill:none;stroke:#000000;stroke-width:27.2518;stroke-dasharray:none"
       d="m 273.28556,1272.521 c 0,0 90.67571,-113.9166 218.03966,-113.9166 127.36395,0 217.98901,113.9166 217.98901,113.9166"
       id="path16" />
  </g>
  <g
     id="layer3">
    <path
       style="display:inline;fill:none;stroke:#000000;stroke-width:27.2518;stroke-dasharray:none"
       d="m 1290.6857,1690.382 c 0,0 90.6757,-113.9168 218.0398,-113.9168 127.3638,0 217.9889,113.9168 217.9889,113.9168"
       id="path18" />
    <path
       style="display:inline;fill:none;stroke:#000000;stroke-width:27.2518;stroke-dasharray:none"
       d="m 1290.6857,1606.8097 c 0,0 90.6757,-113.9165 218.0398,-113.9165 127.3638,0 217.9889,113.9165 217.9889,113.9165"
       id="path19" />
    <path
       style="display:inline;fill:none;stroke:#000000;stroke-width:27.2518;stroke-dasharray:none"
       d="m 1290.6857,1523.2375 c 0,0 90.6757,-113.9167 218.0398,-113.9167 127.3638,0 217.9889,113.9167 217.9889,113.9167"
       id="path20" />
    <path
       style="display:inline;fill:none;stroke:#000000;stroke-width:27.2518;stroke-dasharray:none"
       d="m 1290.6857,1439.6654 c 0,0 90.6757,-113.9167 218.0398,-113.9167 127.3638,0 217.9889,113.9167 217.9889,113.9167"
       id="path21" />
    <path
       style="display:inline;fill:none;stroke:#000000;stroke-width:27.2518;stroke-dasharray:none"
       d="m 1290.6857,1356.0932 c 0,0 90.6757,-113.9166 218.0398,-113.9166 127.3638,0 217.9889,113.9166 217.9889,113.9166"
       id="path22" />
    <path
       style="display:inline;fill:none;stroke:#000000;stroke-width:27.2518;stroke-dasharray:none"
       d="m 1290.6857,1272.521 c 0,0 90.6757,-113.9166 218.0398,-113.9166 127.3638,0 217.9889,113.9166 217.9889,113.9166"
       id="path23" />
  </g>
  <g
     id="layer4">
    <path
       style="display:inline;fill:none;stroke:#000000;stroke-width:27.2518;stroke-dasharray:none"
       d="m 273.28556,1186.2237 c 0,0 69.47449,-118.0911 216.19753,-118.0911 146.72306,0 219.83114,123.5415 219.83114,123.5415 0,0 130.34884,264.3425 290.68576,264.3425 160.33691,0 290.68571,-264.3425 290.68571,-264.3425 0,0 77.0768,-123.5415 218.0144,-123.5415 140.9376,0 218.0143,116.2743 218.0143,116.2743"
       id="path11" />
    <path
       style="display:inline;fill:none;stroke:#000000;stroke-width:30;stroke-dasharray:none"
       d="m 200,379 c 0,0 38.48065,-112 200,-112 203.85121,22.95098 308.85264,246.3626 418,397 42.75689,58.87859 107.09643,160.02707 181.9535,160.02707 M 1800,379 c 0,0 -38.4806,-112 -200,-112 -203.8512,22.95098 -308.8526,246.3626 -418,397 -42.7569,58.87859 -107.0964,160.02707 -181.9535,160.02707"
       id="path45"
       transform="matrix(0.908393,0,0,0.908393,91.606954,127.94585)" />
    <path
       style="display:inline;fill:none;stroke:#000000;stroke-width:30;stroke-dasharray:none"
       d="m 200,379 c 0,0 58.48065,-112 220,-112 203.85121,22.95098 308.85264,246.3626 418,397 42.75689,58.87859 84.10086,124.02707 161.9535,124.02707 M 1800,379 c 0,0 -58.4806,-112 -220,-112 -203.8512,22.95098 -308.8526,246.3626 -418,397 -42.7569,58.87859 -84.1009,124.02707 -161.9535,124.02707"
       id="path46"
       transform="matrix(0.908393,0,0,0.908393,91.606954,226.8456)" />
    <path
       style="display:inline;fill:none;stroke:#000000;stroke-width:30;stroke-dasharray:none"
       d="m 200,379 c 0,0 78.48065,-112 240,-112 203.85121,22.95098 296.12472,256.46311 405.27208,407.10051 42.7286,58.83963 76.98443,100.8709 154.72792,100.9265 77.7435,-0.0556 111.9993,-42.08687 154.7279,-100.9265 C 1263.8753,523.46311 1356.1488,289.95098 1560,267 c 161.5194,0 240,112 240,112"
       id="path47"
       transform="matrix(0.908393,0,0,0.908393,91.606954,310.17263)" />
    <path
       style="display:inline;fill:none;stroke:#000000;stroke-width:30;stroke-dasharray:none"
       d="m 200,379 c 0,0 78.48065,-112 240,-112 203.85121,22.95098 292.85264,246.3626 402,397 42.75689,58.87859 80.10086,97.02707 157.9535,97.02707 M 1800,379 c 0,0 -78.4806,-112 -240,-112 -203.8512,22.95098 -292.8526,246.3626 -402,397 -42.7569,58.87859 -80.1009,97.02707 -157.9535,97.02707"
       id="path49"
       transform="matrix(0.908393,0,0,0.908393,91.606954,396.03074)" />
    <path
       style="display:inline;fill:none;stroke:#000000;stroke-width:30;stroke-dasharray:none"
       d="m 200,379 c 0,0 78.48065,-112 240,-112 203.85121,22.95098 284.36736,232.22046 393.51472,382.85786 42.75689,58.87859 88.58614,107.16921 166.43878,107.16921 M 1800,379 c 0,0 -78.4806,-112 -240,-112 -203.8512,22.95098 -284.3674,232.22046 -393.5147,382.85786 -42.7569,58.87859 -88.5862,107.16921 -166.4388,107.16921"
       id="path51"
       transform="matrix(0.908393,0,0,0.908393,91.606954,475.85424)" />
    <path
       style="display:inline;fill:none;stroke:#000000;stroke-width:30;stroke-dasharray:none"
       d="m 200,379 c 0,0 78.48065,-112 240,-112 203.85121,22.95098 275.88208,223.73518 385.02944,374.37258 42.75689,58.87859 97.07142,111.65449 174.92406,111.65449 M 1800,379 c 0,0 -78.4806,-112 -240,-112 -203.8512,22.95098 -275.8821,223.73518 -385.0294,374.37258 -42.7569,58.87859 -97.0715,111.65449 -174.9241,111.65449"
       id="path53"
       transform="matrix(0.908393,0,0,0.908393,91.606954,555.67774)" />
    <path
       style="display:inline;fill:none;stroke:#000000;stroke-width:30;stroke-dasharray:none"
       d="m 200,379 c 0,0 78.48065,-112 240,-112 203.85121,22.95098 254.66887,185.55142 363.81623,336.18882 42.75689,58.87859 118.28463,133.83825 196.13727,133.83825 M 1800,379 c 0,0 -78.4806,-112 -240,-112 -203.8512,22.95098 -254.6689,185.55142 -363.8162,336.18882 -42.7569,58.87859 -118.2847,133.83825 -196.1373,133.83825"
       id="path55"
       transform="matrix(0.908393,0,0,0.908393,91.606954,644.58519)" />
    <path
       style="display:inline;fill:none;stroke:#000000;stroke-width:30;stroke-dasharray:none"
       d="m 200,379 c 0,0 78.48065,-112 240,-112 203.85121,22.95098 194.0587,92.21333 303.20606,242.85073 42.75689,58.87859 143.51027,211.17634 256.74744,211.17634 M 1800,379 c 0,0 -78.4806,-112 -240,-112 -203.8512,22.95098 -194.0587,92.21333 -303.2061,242.85073 -42.7568,58.87859 -143.5102,211.17634 -256.7474,211.17634"
       id="path57"
       transform="matrix(0.908393,0,0,0.908393,91.606954,733.49261)" />
  </g>
</svg>
