<svg xmlns="http://www.w3.org/2000/svg" viewBox="0 0 640 512"><!-- Font Awesome Free 6.5.1 by @fontawesome - https://fontawesome.com License - https://fontawesome.com/license/free (Icons: CC BY 4.0, Fonts: SIL OFL 1.1, Code: MIT License) --><path d="M38.8 5.1C28.4-3.1 13.3-1.2 5.1 9.2S-1.2 34.7 9.2 42.9l592 464c10.4 8.2 25.5 6.3 33.7-4.1s6.3-25.5-4.1-33.7L525.6 386.7c39.6-40.6 66.4-86.1 79.9-118.4c3.3-7.9 3.3-16.7 0-24.6c-14.9-35.7-46.2-87.7-93-131.1C465.5 68.8 400.8 32 320 32c-68.2 0-125 26.3-169.3 60.8L38.8 5.1zM223.1 149.5C256.6 115.1 286.1 96 320 96c79.5 0 144 64.5 144 144c0 24.9-6.3 48.3-17.4 68.7L408 281.5c5.1-15.8 8-32.7 8-50.5c0-53-43-96-96-96c-20.1 0-38.8 6.2-54.2 16.8l-32.6-25.6c-.1-.1-.3-.1-.4-.2l-8.7-6.8-1-1zM223.4 224c-1.6 9.2-2.4 18.5-2.4 28c0 79.5 64.5 144 144 144c13.9 0 27.4-2 40.1-5.7l-81.8-64.3c-29.2-3.9-53.9-24.4-64.8-52.3l-35.1-27.5zm273.7 223.3l-42.8-33.5c-29.2 13.7-61.2 22.2-94.3 22.2c-80.8 0-145.5-36.8-192.6-80.6C120.8 312.6 89.4 260.6 74.5 224.8c-2.1-5.1-3.3-10.7-3.3-16.2c0-5.3 1.1-10.7 3.1-15.6c11.3-27.2 29.6-58.8 54.7-89.3L80.6 64.6C56.5 95.5 36.3 130.3 21.5 163.5c-4.8 10.8-7.5 22.8-7.5 35c0 12.1 2.6 24.1 7.5 35c20.9 50.3 54.7 105.1 102.2 152.6C173.4 435.4 242.4 480 320 480c58.6 0 111.6-18.1 157.1-48.7z"/></svg>
